<mxfile host="app.diagrams.net" agent="Mozilla/5.0 (Windows NT 10.0; Win64; x64) AppleWebKit/537.36 (KHTML, like Gecko) Chrome/131.0.0.0 Safari/537.36" version="24.8.8">
  <diagram id="7ppRvNk1zpt_GVjPVZD1" name="Page-1">
    <mxGraphModel dx="1441" dy="552" grid="1" gridSize="10" guides="1" tooltips="1" connect="1" arrows="1" fold="1" page="1" pageScale="1" pageWidth="850" pageHeight="1100" math="0" shadow="0">
      <root>
        <mxCell id="0" />
        <mxCell id="1" parent="0" />
        <mxCell id="uWJvvqluFoZpLmPsLpKp-35" value="" style="verticalLabelPosition=bottom;verticalAlign=top;html=1;shape=mxgraph.basic.polygon;polyCoords=[[0.51,0],[1,0],[1,0.67],[1,1],[0.75,1],[0.26,1],[0,0.64],[0,0]];polyline=0;dashed=1;fillColor=#fff2cc;strokeColor=#d6b656;" vertex="1" parent="1">
          <mxGeometry x="408" y="722.5" width="85" height="67" as="geometry" />
        </mxCell>
        <mxCell id="uWJvvqluFoZpLmPsLpKp-23" value="" style="verticalLabelPosition=bottom;verticalAlign=top;html=1;shape=mxgraph.basic.polygon;polyCoords=[[0.51,0],[1,0],[1,0.67],[1,1],[0.75,1],[0,1],[0,0.64],[0,0]];polyline=0;dashed=1;fillColor=#e1d5e7;strokeColor=#9673a6;" vertex="1" parent="1">
          <mxGeometry x="280.5" y="686" width="99" height="64" as="geometry" />
        </mxCell>
        <mxCell id="uWJvvqluFoZpLmPsLpKp-16" value="" style="verticalLabelPosition=bottom;verticalAlign=top;html=1;shape=mxgraph.basic.polygon;polyCoords=[[0.43,0.18],[0.74,0.18],[1,0.67],[1,1],[0.75,1],[0.03,1],[0,0.64],[0.23,0.18]];polyline=0;dashed=1;fillColor=#dae8fc;strokeColor=#6c8ebf;" vertex="1" parent="1">
          <mxGeometry x="397" y="780" width="99" height="120" as="geometry" />
        </mxCell>
        <mxCell id="uWJvvqluFoZpLmPsLpKp-15" value="" style="verticalLabelPosition=bottom;verticalAlign=top;html=1;shape=mxgraph.basic.polygon;polyCoords=[[0.16,0],[0.89,0],[0.89,0.38],[0.27,0.39],[0.27,1],[0.11,1],[0.01,0.51],[0,0]];polyline=0;dashed=1;fillColor=#f8cecc;strokeColor=#b85450;align=left;" vertex="1" parent="1">
          <mxGeometry x="299" y="819" width="190" height="79" as="geometry" />
        </mxCell>
        <mxCell id="Hptk14DgsM6zm9_NptxO-45" value="D" style="rounded=0;whiteSpace=wrap;html=1;fillColor=#f8cecc;strokeColor=#b85450;" parent="1" vertex="1">
          <mxGeometry x="303" y="824" width="20" height="20" as="geometry" />
        </mxCell>
        <mxCell id="Hptk14DgsM6zm9_NptxO-46" value="d" style="rounded=0;whiteSpace=wrap;html=1;fillColor=#f8cecc;strokeColor=#b85450;" parent="1" vertex="1">
          <mxGeometry x="324" y="870" width="21" height="20" as="geometry" />
        </mxCell>
        <mxCell id="Hptk14DgsM6zm9_NptxO-47" value="d" style="rounded=0;whiteSpace=wrap;html=1;fillColor=#ffe6cc;strokeColor=#d79b00;" parent="1" vertex="1">
          <mxGeometry x="284" y="870" width="21" height="20" as="geometry" />
        </mxCell>
        <mxCell id="Hptk14DgsM6zm9_NptxO-50" value="" style="endArrow=none;html=1;rounded=0;exitX=0.5;exitY=1;exitDx=0;exitDy=0;fillColor=#fff2cc;strokeColor=#000000;entryX=0.5;entryY=0;entryDx=0;entryDy=0;" parent="1" source="Hptk14DgsM6zm9_NptxO-45" target="Hptk14DgsM6zm9_NptxO-47" edge="1">
          <mxGeometry width="50" height="50" relative="1" as="geometry">
            <mxPoint x="443" y="834" as="sourcePoint" />
            <mxPoint x="464" y="814" as="targetPoint" />
          </mxGeometry>
        </mxCell>
        <mxCell id="Hptk14DgsM6zm9_NptxO-51" value="" style="endArrow=none;html=1;rounded=0;exitX=0.5;exitY=1;exitDx=0;exitDy=0;entryX=0.5;entryY=0;entryDx=0;entryDy=0;fillColor=#fff2cc;strokeColor=#000000;" parent="1" source="Hptk14DgsM6zm9_NptxO-45" target="Hptk14DgsM6zm9_NptxO-46" edge="1">
          <mxGeometry width="50" height="50" relative="1" as="geometry">
            <mxPoint x="423" y="834" as="sourcePoint" />
            <mxPoint x="444" y="814" as="targetPoint" />
          </mxGeometry>
        </mxCell>
        <mxCell id="Hptk14DgsM6zm9_NptxO-52" value="d" style="rounded=0;whiteSpace=wrap;html=1;fillColor=#dae8fc;strokeColor=#6c8ebf;" parent="1" vertex="1">
          <mxGeometry x="406" y="870" width="21" height="20" as="geometry" />
        </mxCell>
        <mxCell id="Hptk14DgsM6zm9_NptxO-53" value="d" style="rounded=0;whiteSpace=wrap;html=1;fillColor=#f8cecc;strokeColor=#b85450;" parent="1" vertex="1">
          <mxGeometry x="437" y="824" width="21" height="20" as="geometry" />
        </mxCell>
        <mxCell id="Hptk14DgsM6zm9_NptxO-54" value="d" style="rounded=0;whiteSpace=wrap;html=1;fillColor=#fff2cc;strokeColor=#d6b656;" parent="1" vertex="1">
          <mxGeometry x="467" y="870" width="21" height="20" as="geometry" />
        </mxCell>
        <mxCell id="Hptk14DgsM6zm9_NptxO-55" value="" style="endArrow=none;html=1;rounded=0;entryX=0.5;entryY=1;entryDx=0;entryDy=0;exitX=0.5;exitY=0;exitDx=0;exitDy=0;fillColor=#fff2cc;strokeColor=#000000;" parent="1" source="Hptk14DgsM6zm9_NptxO-52" target="Hptk14DgsM6zm9_NptxO-53" edge="1">
          <mxGeometry width="50" height="50" relative="1" as="geometry">
            <mxPoint x="458" y="985" as="sourcePoint" />
            <mxPoint x="508" y="935" as="targetPoint" />
          </mxGeometry>
        </mxCell>
        <mxCell id="Hptk14DgsM6zm9_NptxO-56" value="" style="endArrow=none;html=1;rounded=0;entryX=0.5;entryY=0;entryDx=0;entryDy=0;exitX=0.5;exitY=1;exitDx=0;exitDy=0;fillColor=#fff2cc;strokeColor=#000000;" parent="1" source="Hptk14DgsM6zm9_NptxO-53" target="Hptk14DgsM6zm9_NptxO-54" edge="1">
          <mxGeometry width="50" height="50" relative="1" as="geometry">
            <mxPoint x="477" y="935" as="sourcePoint" />
            <mxPoint x="498" y="915" as="targetPoint" />
          </mxGeometry>
        </mxCell>
        <mxCell id="Hptk14DgsM6zm9_NptxO-57" value="d" style="rounded=0;whiteSpace=wrap;html=1;fillColor=#fff2cc;strokeColor=#d6b656;" parent="1" vertex="1">
          <mxGeometry x="437" y="870" width="21" height="20" as="geometry" />
        </mxCell>
        <mxCell id="Hptk14DgsM6zm9_NptxO-58" value="" style="endArrow=none;html=1;rounded=0;entryX=0.5;entryY=0;entryDx=0;entryDy=0;exitX=0.5;exitY=1;exitDx=0;exitDy=0;fillColor=#fff2cc;strokeColor=#000000;" parent="1" source="Hptk14DgsM6zm9_NptxO-53" target="Hptk14DgsM6zm9_NptxO-57" edge="1">
          <mxGeometry width="50" height="50" relative="1" as="geometry">
            <mxPoint x="477" y="935" as="sourcePoint" />
            <mxPoint x="498" y="904" as="targetPoint" />
          </mxGeometry>
        </mxCell>
        <mxCell id="Hptk14DgsM6zm9_NptxO-63" value="d" style="rounded=0;whiteSpace=wrap;html=1;fillColor=#dae8fc;strokeColor=#6c8ebf;" parent="1" vertex="1">
          <mxGeometry x="263" y="824" width="20" height="20" as="geometry" />
        </mxCell>
        <mxCell id="Hptk14DgsM6zm9_NptxO-64" value="d" style="rounded=0;whiteSpace=wrap;html=1;fillColor=#dae8fc;strokeColor=#6c8ebf;" parent="1" vertex="1">
          <mxGeometry x="285" y="778" width="20" height="20" as="geometry" />
        </mxCell>
        <mxCell id="Hptk14DgsM6zm9_NptxO-65" value="d" style="rounded=0;whiteSpace=wrap;html=1;fillColor=#f8cecc;strokeColor=#b85450;" parent="1" vertex="1">
          <mxGeometry x="303" y="824" width="20" height="20" as="geometry" />
        </mxCell>
        <mxCell id="Hptk14DgsM6zm9_NptxO-66" value="" style="endArrow=none;html=1;rounded=0;entryX=0.5;entryY=1;entryDx=0;entryDy=0;exitX=0.5;exitY=0;exitDx=0;exitDy=0;fillColor=#fff2cc;strokeColor=#000000;" parent="1" source="Hptk14DgsM6zm9_NptxO-63" target="Hptk14DgsM6zm9_NptxO-64" edge="1">
          <mxGeometry width="50" height="50" relative="1" as="geometry">
            <mxPoint x="304" y="935" as="sourcePoint" />
            <mxPoint x="354" y="885" as="targetPoint" />
          </mxGeometry>
        </mxCell>
        <mxCell id="Hptk14DgsM6zm9_NptxO-67" value="" style="endArrow=none;html=1;rounded=0;entryX=0.5;entryY=0;entryDx=0;entryDy=0;exitX=0.5;exitY=1;exitDx=0;exitDy=0;fillColor=#fff2cc;strokeColor=#000000;" parent="1" source="Hptk14DgsM6zm9_NptxO-64" target="Hptk14DgsM6zm9_NptxO-65" edge="1">
          <mxGeometry width="50" height="50" relative="1" as="geometry">
            <mxPoint x="323" y="885" as="sourcePoint" />
            <mxPoint x="344" y="865" as="targetPoint" />
          </mxGeometry>
        </mxCell>
        <mxCell id="uWJvvqluFoZpLmPsLpKp-2" value="q" style="ellipse;whiteSpace=wrap;html=1;aspect=fixed;fillColor=#e1d5e7;strokeColor=#9673a6;" vertex="1" parent="1">
          <mxGeometry x="294" y="695" width="30" height="30" as="geometry" />
        </mxCell>
        <mxCell id="uWJvvqluFoZpLmPsLpKp-4" value="q*" style="ellipse;whiteSpace=wrap;html=1;aspect=fixed;fillColor=#e1d5e7;strokeColor=#9673a6;" vertex="1" parent="1">
          <mxGeometry x="323" y="688" width="30" height="30" as="geometry" />
        </mxCell>
        <mxCell id="uWJvvqluFoZpLmPsLpKp-6" value="q" style="ellipse;whiteSpace=wrap;html=1;aspect=fixed;fillColor=#e1d5e7;strokeColor=#9673a6;" vertex="1" parent="1">
          <mxGeometry x="315" y="717" width="30" height="30" as="geometry" />
        </mxCell>
        <mxCell id="uWJvvqluFoZpLmPsLpKp-8" value="" style="endArrow=classic;html=1;rounded=0;entryX=0.5;entryY=0;entryDx=0;entryDy=0;exitX=0.281;exitY=1.005;exitDx=0;exitDy=0;exitPerimeter=0;" edge="1" parent="1" target="Hptk14DgsM6zm9_NptxO-64">
          <mxGeometry width="50" height="50" relative="1" as="geometry">
            <mxPoint x="306.43000000000006" y="724.1499999999999" as="sourcePoint" />
            <mxPoint x="295" y="781" as="targetPoint" />
          </mxGeometry>
        </mxCell>
        <mxCell id="uWJvvqluFoZpLmPsLpKp-10" value="" style="endArrow=classic;html=1;rounded=0;exitX=1;exitY=1;exitDx=0;exitDy=0;entryX=0.25;entryY=0;entryDx=0;entryDy=0;" edge="1" parent="1" source="uWJvvqluFoZpLmPsLpKp-4" target="Hptk14DgsM6zm9_NptxO-53">
          <mxGeometry width="50" height="50" relative="1" as="geometry">
            <mxPoint x="420" y="920" as="sourcePoint" />
            <mxPoint x="402" y="810" as="targetPoint" />
          </mxGeometry>
        </mxCell>
        <mxCell id="uWJvvqluFoZpLmPsLpKp-19" value="Question" style="text;html=1;align=center;verticalAlign=middle;resizable=0;points=[];autosize=1;strokeColor=none;fillColor=none;" vertex="1" parent="1">
          <mxGeometry x="295" y="663" width="70" height="30" as="geometry" />
        </mxCell>
        <mxCell id="uWJvvqluFoZpLmPsLpKp-20" value="Chunk" style="text;html=1;align=center;verticalAlign=middle;resizable=0;points=[];autosize=1;strokeColor=none;fillColor=none;" vertex="1" parent="1">
          <mxGeometry x="351" y="819" width="60" height="30" as="geometry" />
        </mxCell>
        <mxCell id="uWJvvqluFoZpLmPsLpKp-21" value="Document Structure" style="text;html=1;align=center;verticalAlign=middle;resizable=0;points=[];autosize=1;strokeColor=none;fillColor=none;" vertex="1" parent="1">
          <mxGeometry x="380" y="895" width="130" height="30" as="geometry" />
        </mxCell>
        <mxCell id="uWJvvqluFoZpLmPsLpKp-25" value="" style="endArrow=classic;html=1;rounded=0;exitX=0.5;exitY=1;exitDx=0;exitDy=0;entryX=0.75;entryY=0;entryDx=0;entryDy=0;" edge="1" parent="1">
          <mxGeometry width="50" height="50" relative="1" as="geometry">
            <mxPoint x="327" y="746" as="sourcePoint" />
            <mxPoint x="313" y="824" as="targetPoint" />
          </mxGeometry>
        </mxCell>
        <mxCell id="uWJvvqluFoZpLmPsLpKp-27" value="a" style="rounded=0;whiteSpace=wrap;html=1;fillColor=#e1d5e7;strokeColor=#9673a6;" vertex="1" parent="1">
          <mxGeometry x="425" y="745" width="20" height="20" as="geometry" />
        </mxCell>
        <mxCell id="uWJvvqluFoZpLmPsLpKp-28" value="d" style="rounded=0;whiteSpace=wrap;html=1;fillColor=#f8cecc;strokeColor=#b85450;" vertex="1" parent="1">
          <mxGeometry x="464" y="729" width="20" height="20" as="geometry" />
        </mxCell>
        <mxCell id="uWJvvqluFoZpLmPsLpKp-30" value="" style="endArrow=none;html=1;rounded=0;exitX=1;exitY=0.5;exitDx=0;exitDy=0;entryX=0;entryY=0.5;entryDx=0;entryDy=0;" edge="1" parent="1" source="uWJvvqluFoZpLmPsLpKp-27" target="uWJvvqluFoZpLmPsLpKp-28">
          <mxGeometry width="50" height="50" relative="1" as="geometry">
            <mxPoint x="504" y="865" as="sourcePoint" />
            <mxPoint x="554" y="815" as="targetPoint" />
          </mxGeometry>
        </mxCell>
        <mxCell id="uWJvvqluFoZpLmPsLpKp-31" value="d" style="rounded=0;whiteSpace=wrap;html=1;fillColor=#dae8fc;strokeColor=#6c8ebf;" vertex="1" parent="1">
          <mxGeometry x="464" y="760" width="20" height="20" as="geometry" />
        </mxCell>
        <mxCell id="uWJvvqluFoZpLmPsLpKp-32" value="" style="endArrow=none;html=1;rounded=0;exitX=1;exitY=0.5;exitDx=0;exitDy=0;entryX=0;entryY=0.5;entryDx=0;entryDy=0;" edge="1" parent="1" source="uWJvvqluFoZpLmPsLpKp-27" target="uWJvvqluFoZpLmPsLpKp-31">
          <mxGeometry width="50" height="50" relative="1" as="geometry">
            <mxPoint x="455" y="765" as="sourcePoint" />
            <mxPoint x="474" y="749" as="targetPoint" />
          </mxGeometry>
        </mxCell>
        <mxCell id="uWJvvqluFoZpLmPsLpKp-34" value="" style="endArrow=classic;html=1;rounded=0;exitX=0.956;exitY=0.65;exitDx=0;exitDy=0;entryX=0;entryY=0.5;entryDx=0;entryDy=0;exitPerimeter=0;" edge="1" parent="1" source="uWJvvqluFoZpLmPsLpKp-4" target="uWJvvqluFoZpLmPsLpKp-27">
          <mxGeometry width="50" height="50" relative="1" as="geometry">
            <mxPoint x="401" y="656" as="sourcePoint" />
            <mxPoint x="494" y="766" as="targetPoint" />
          </mxGeometry>
        </mxCell>
        <mxCell id="uWJvvqluFoZpLmPsLpKp-36" value="Usaged-based" style="text;html=1;align=center;verticalAlign=middle;resizable=0;points=[];autosize=1;strokeColor=none;fillColor=none;" vertex="1" parent="1">
          <mxGeometry x="400.5" y="699" width="100" height="30" as="geometry" />
        </mxCell>
      </root>
    </mxGraphModel>
  </diagram>
</mxfile>
